<?xml version="1.0" encoding="utf-8"?>
<!-- Generator: Adobe Illustrator 23.0.1, SVG Export Plug-In . SVG Version: 6.00 Build 0)  -->
<svg version="1.1" id="Layer_1" xmlns="http://www.w3.org/2000/svg" xmlns:xlink="http://www.w3.org/1999/xlink" x="0px" y="0px"
	 viewBox="0 0 467 344" style="enable-background:new 0 0 467 344;" xml:space="preserve">
<style type="text/css">
	.st0{fill:#FFFFFF;}
</style>
<g id="Shape_2_1_">
	<g id="XMLID_1_">
		<g>
			<path d="M452.85,60.04c8.48,23.4,6.2,50.17-4.68,72.59c-5.29,10.95-12.67,21.47-13.3,33.64c-0.67,13.3,6.91,25.4,11.85,37.76
				c15.94,39.96,1.85,89.86-32.66,115.61c-34.5,25.71-86.36,24.96-120.12-1.73c-9.38-7.42-17.43-16.64-22.61-27.4
				c-6.32-13.23-6.95-31.29,4.52-40.39c11.46-9.07,28.34-4.56,41.37,2.04c13.03,6.55,26.65,15.11,41.06,12.83
				c9.7-1.57,18.41-8.36,22.22-17.43c3.85-9.02,2.67-20.02-2.98-28.06c-7.07-10.05-19.47-14.49-30.27-20.42
				c-10.8-5.92-21.51-16.01-20.29-28.22c0.78-7.93,6.47-14.41,12.32-19.78c5.89-5.34,12.45-10.37,16.02-17.43
				c3.61-7.11,3.1-17.12-3.54-21.48c-6.67-4.35-15.5-1.21-22.61,2.36c-15.74,7.85-30.77,17.15-44.83,27.79
				c16.06,17.31,21.99,43.46,14.96,66.03c-2.79,9.03-9.7,18.68-19.12,17.74c-9.03-0.86-14.09-11.26-14.32-20.33
				c-0.2-9.07,2.59-18.18,1.33-27.17c-1.22-8.99-9.11-18.33-17.9-16.17c-3.49,0.86-6.32,3.3-9.03,5.57
				c-45.22,38.2-103.55,60.5-162.71,62.22c-16.21,0.47-32.94-0.7-47.46-7.85c-14.53-7.18-22.3-16.69-22.57-32.86
				c-0.39-20.92,16.18-39.33,36-46c19.78-6.71,39.05-9.42,59.74-12.37c40-5.69,76.78-24.88,111.09-46.24
				C248.6,63.5,281.5,39.51,318.16,22.55c25.91-12.01,55.43-20.41,82.79-12.4C424.86,17.1,444.37,36.61,452.85,60.04z"/>
		</g>
	</g>
</g>
</svg>
